HIERARCHY
ROOT Hips
{
	OFFSET -8.665500 -1.496397 44.816700
	CHANNELS 6 Xposition Yposition Zposition Zrotation Xrotation Yrotation
	JOINT Chest
	{
		OFFSET -0.698600 0.806100 5.350899
		CHANNELS 6 Xposition Yposition Zposition Zrotation Xrotation Yrotation
		JOINT Chest2
		{
			OFFSET 0.000000 0.000000 4.409100
			CHANNELS 6 Xposition Yposition Zposition Zrotation Xrotation Yrotation
			JOINT Neck
			{
				OFFSET 0.000000 0.000001 10.248299
				CHANNELS 6 Xposition Yposition Zposition Zrotation Xrotation Yrotation
				JOINT Head
				{
					OFFSET 0.000000 0.000000 2.173897
					CHANNELS 6 Xposition Yposition Zposition Zrotation Xrotation Yrotation
					End Site
					{
						OFFSET 0.000000 0.000001 9.966400
					}
				}
			}
			JOINT LeftCollar
			{
				OFFSET 2.100600 -0.520900 6.016098
				CHANNELS 6 Xposition Yposition Zposition Zrotation Xrotation Yrotation
				JOINT LeftShoulder
				{
					OFFSET 5.536700 0.000000 0.000000
					CHANNELS 6 Xposition Yposition Zposition Zrotation Xrotation Yrotation
					JOINT LeftElbow
					{
						OFFSET 0.000000 -0.000001 -12.362099
						CHANNELS 6 Xposition Yposition Zposition Zrotation Xrotation Yrotation
						JOINT LeftWrist
						{
							OFFSET 0.000000 -0.000001 -10.273201
							CHANNELS 6 Xposition Yposition Zposition Zrotation Xrotation Yrotation
							End Site
							{
								OFFSET 0.000000 -0.000000 -2.173901
							}
						}
					}
				}
			}
			JOINT RightCollar
			{
				OFFSET -2.899500 -1.655900 6.981701
				CHANNELS 6 Xposition Yposition Zposition Zrotation Xrotation Yrotation
				JOINT RightShoulder
				{
					OFFSET -4.387501 0.000000 0.000000
					CHANNELS 6 Xposition Yposition Zposition Zrotation Xrotation Yrotation
					JOINT RightElbow
					{
						OFFSET 0.000000 -0.000001 -10.858101
						CHANNELS 6 Xposition Yposition Zposition Zrotation Xrotation Yrotation
						JOINT RightWrist
						{
							OFFSET 0.000000 -0.000001 -12.079601
							CHANNELS 6 Xposition Yposition Zposition Zrotation Xrotation Yrotation
							End Site
							{
								OFFSET 0.000000 0.000000 -2.173901
							}
						}
					}
				}
			}
		}
	}
	JOINT LeftHip
	{
		OFFSET 2.190800 0.073900 -2.522499
		CHANNELS 6 Xposition Yposition Zposition Zrotation Xrotation Yrotation
		JOINT LeftKnee
		{
			OFFSET 0.000000 -0.000002 -20.305000
			CHANNELS 6 Xposition Yposition Zposition Zrotation Xrotation Yrotation
			JOINT LeftAnkle
			{
				OFFSET 0.000000 -0.000001 -16.771700
				CHANNELS 6 Xposition Yposition Zposition Zrotation Xrotation Yrotation
				End Site
				{
					OFFSET 0.000000 -8.738000 0.000001
				}
			}
		}
	}
	JOINT RightHip
	{
		OFFSET -2.029500 0.054300 -2.705200
		CHANNELS 6 Xposition Yposition Zposition Zrotation Xrotation Yrotation
		JOINT RightKnee
		{
			OFFSET 0.000000 -0.000002 -20.030399
			CHANNELS 6 Xposition Yposition Zposition Zrotation Xrotation Yrotation
			JOINT RightAnkle
			{
				OFFSET 0.000000 -0.000001 -17.032700
				CHANNELS 6 Xposition Yposition Zposition Zrotation Xrotation Yrotation
				End Site
				{
					OFFSET 0.000000 -8.823600 0.000001
				}
			}
		}
	}
}
MOTION
Frames: 4
Frame Time: 0.041667
-3.222295 28.663004 42.783897 2863.257483 0.633801 0.389118 -0.698599 0.806097 5.350896 16.143058 2.678850 8.495326 0.000001 0.000001 4.409099 -8.051496 -3.735700 -0.568969 0.000000 -0.000001 10.248291 62.319985 -7.168573 -12.261271 -0.000001 -0.000001 2.173905 0.910910 -0.451053 5.266309 2.100602 -0.520904 6.016093 7.634555 -2.513040 8.196225 5.536695 0.000005 0.000008 162.667580 234.972742 -280.775662 -0.000004 -0.000005 -12.362097 -319.928902 -9.459967 2.559805 -0.000003 -0.000006 -10.273198 1652.577165 182.812895 -180.233925 -2.899503 -1.655902 6.981698 -12.714648 -22.948812 33.473053 -4.387497 -0.000001 0.000004 -365.907687 -496.730862 788.482502 0.000002 -0.000004 -10.858108 104.190847 -175.509497 67.571608 0.000004 0.000005 -12.079602 -103.429712 -179.101384 177.014215 2.190800 0.073894 -2.522496 -502.175670 -155.396393 -162.922756 -0.000005 -0.000007 -20.305006 -840.075675 21.833166 70.125969 0.000003 0.000005 -16.771702 1504.816131 -6.256359 41.226831 -2.029500 0.054296 -2.705201 -72.659457 -44.500479 -42.889657 -0.000000 -0.000005 -20.030392 -223.336818 18.938178 -133.367763 0.000002 0.000001 -17.032700 351.927027 4.468200 -5.153197
-3.208694 28.606306 42.728195 2863.239998 0.618352 0.336801 -0.698599 0.806101 5.350897 16.188737 2.615867 8.305653 -0.000001 0.000001 4.409108 -8.116255 -3.779280 -0.576151 -0.000001 -0.000002 10.248289 62.499912 -6.923856 -12.314241 -0.000001 0.000002 2.173897 0.967734 -0.349643 5.263903 2.100601 -0.520901 6.016094 7.684123 -2.463683 8.385550 5.536696 0.000001 0.000002 162.774691 234.667733 -280.648648 -0.000004 0.000002 -12.362091 -319.561984 -9.429247 2.545906 -0.000001 -0.000001 -10.273201 1652.386685 182.684597 -180.166935 -2.899498 -1.655902 6.981696 -12.512562 -22.882645 33.848136 -4.387498 -0.000001 0.000005 -366.075818 -496.288321 788.476491 0.000000 0.000000 -10.858104 103.623279 -175.060303 67.671889 0.000011 0.000002 -12.079601 -104.045255 -179.088161 177.084102 2.190802 0.073898 -2.522504 -502.880546 -155.594032 -162.526824 -0.000004 -0.000003 -20.305002 -839.786512 22.637154 69.830905 0.000001 0.000004 -16.771700 1505.256542 -5.300667 40.769563 -2.029499 0.054291 -2.705210 -72.986903 -44.563241 -43.209440 -0.000001 0.000001 -20.030394 -223.079907 18.759306 -133.259040 -0.000001 -0.000005 -17.032701 351.322091 4.589499 -4.974758
-3.193097 28.550802 42.673798 2863.218360 0.627427 0.299668 -0.698601 0.806103 5.350906 16.238946 2.517217 8.119212 0.000001 0.000002 4.409102 -8.197240 -3.794343 -0.590523 -0.000001 0.000001 10.248300 62.518490 -6.712133 -12.275026 0.000001 0.000001 2.173895 1.129716 -0.296942 5.197541 2.100599 -0.520900 6.016105 7.668796 -2.398800 8.587041 5.536694 0.000003 -0.000002 162.851941 234.602873 -280.670723 0.000007 0.000004 -12.362095 -318.809216 -9.298822 2.675538 0.000000 0.000002 -10.273201 1651.722572 182.636499 -180.145761 -2.899499 -1.655901 6.981700 -12.512031 -22.726910 33.841067 -4.387495 0.000001 -0.000001 -366.041367 -496.524372 788.305682 -0.000000 -0.000001 -10.858103 103.585782 -174.611614 67.670311 -0.000007 -0.000007 -12.079605 -104.353522 -179.167555 177.041536 2.190798 0.073902 -2.522501 -503.699294 -155.766193 -162.136533 -0.000005 -0.000005 -20.305010 -839.166658 23.971433 69.418641 0.000001 0.000005 -16.771702 1505.324844 -4.219492 39.875071 -2.029501 0.054302 -2.705202 -73.365008 -44.586211 -43.638307 -0.000001 -0.000001 -20.030396 -222.642310 18.553485 -133.151328 0.000003 -0.000001 -17.032700 350.509380 4.870517 -4.234322
-3.177897 28.497606 42.621395 2863.214207 0.647907 0.244170 -0.698601 0.806099 5.350894 16.269873 2.430183 7.901960 0.000000 0.000000 4.409089 -8.320643 -3.763125 -0.598155 -0.000001 0.000000 10.248298 62.667682 -6.510108 -12.170700 -0.000000 0.000000 2.173903 1.089140 -0.331743 5.095386 2.100600 -0.520897 6.016107 7.698095 -2.508898 8.682369 5.536695 0.000003 0.000010 163.290016 234.255408 -280.345770 -0.000001 0.000001 -12.362096 -320.253855 -9.309554 2.411537 0.000002 -0.000004 -10.273200 1653.352310 182.584699 -180.008898 -2.899503 -1.655899 6.981707 -12.194284 -22.682030 34.400763 -4.387504 0.000001 0.000003 -365.905610 -496.583549 788.691123 0.000002 0.000002 -10.858095 103.594360 -174.356657 67.802660 -0.000007 0.000001 -12.079604 -104.727393 -179.189685 177.031837 2.190797 0.073899 -2.522504 -504.095719 -155.868305 -161.610854 -0.000005 -0.000003 -20.305008 -838.746083 25.238772 69.159886 -0.000000 0.000004 -16.771704 1505.228019 -3.060903 38.960079 -2.029503 0.054296 -2.705204 -73.813465 -44.563129 -44.056325 0.000001 -0.000006 -20.030394 -222.133010 18.267163 -133.064325 -0.000001 -0.000004 -17.032698 350.160221 4.995600 -5.119237
